# AST/ASF file generated using VICON BodyLanguage
# -----------------------------------------------
:version 1.10
:name VICON
:units
  mass 1.0
  length 0.45
  angle deg
:documentation
   .ast/.asf automatically generated from VICON data using
   VICON BodyBuilder and BodyLanguage model FoxedUp or BRILLIANT.MOD
:root
   order TX TY TZ RX RY RZ
   axis XYZ
   position 0 0 0  
   orientation 0 0 0 
:bonedata
  begin
     id 1 
     name lhipjoint
     direction 0.627457 -0.725269 0.283342 
     length 2.53237 
     axis 0 0 0  XYZ
  end
  begin
     id 2 
     name lfemur
     direction 0.34202 -0.939693 0  
     length 7.32496  
     axis 0 0 20  XYZ
    dof rx ry rz
    limits (-160.0 20.0)
           (-70.0 70.0)
           (-60.0 70.0)
  end
  begin
     id 3 
     name ltibia
     direction 0.34202 -0.939693 0   
     length 7.69674   
     axis 0 0 20   XYZ
    dof rx
    limits (-10.0 170.0)
  end
  begin
     id 4 
     name lfoot
     direction 0.127289 -0.349722 0.928166   
     length 1.8612   
     axis -90 7.62852e-016 20   XYZ
    dof rx rz
    limits (-45.0 90.0)
           (-70.0 20.0)
  end
  begin
     id 5 
     name ltoes
     direction 1.53561e-011 -4.21864e-011 1   
     length 0.925608   
     axis -90 7.62852e-016 20   XYZ
    dof rx
    limits (-90.0 20.0)
  end
  begin
     id 6 
     name rhipjoint
     direction -0.609094 -0.738725 0.288599   
     length 2.48624  
     axis 0 0 0  XYZ 
  end
  begin
     id 7 
     name rfemur
     direction -0.34202 -0.939693 0   
     length 7.44259   
     axis 0 0 -20   XYZ
    dof rx ry rz
    limits (-160.0 20.0)
           (-70.0 70.0)
           (-70.0 60.0)
  end
  begin
     id 8 
     name rtibia
     direction -0.34202 -0.939693 0   
     length 7.7781   
     axis 0 0 -20   XYZ
    dof rx
    limits (-10.0 170.0)
 end
 begin
     id 9 
     name rfoot
     direction -0.107015 -0.294021 0.949789   
     length 2.14741  
     axis -90 -7.62852e-016 -20   XYZ
    dof rx rz
    limits (-45.0 90.0)
           (-20.0 70.0)
  end
  begin
     id 10 
     name rtoes
     direction -1.53497e-011 -4.21924e-011 1   
     length 1.0706   
     axis -90 -7.62852e-016 -20   XYZ
    dof rx
    limits (-90.0 20.0)
  end
  begin
     id 11 
     name lowerback
     direction -0.0142066 0.998112 -0.0597545   
     length 1.86627   
     axis 0 0 0   XYZ
    dof rx ry rz
    limits (-20.0 45.0)
           (-30.0 30.0)
           (-30.0 30.0)
  end
  begin
     id 12 
     name upperback
     direction 0.00547294 0.999744 0.0219437   
     length 1.86272   
     axis 0 0 0   XYZ
    dof rx ry rz
    limits (-20.0 45.0)
           (-30.0 30.0)
           (-30.0 30.0)
  end
  begin
     id 13 
     name thorax
     direction 0.0116162 0.998704 0.0495538   
     length 1.8703   
     axis 0 0 0   XYZ
    dof rx ry rz
    limits (-20.0 45.0)
           (-30.0 30.0)
           (-30.0 30.0)
  end
  begin
     id 14 
     name lowerneck
     direction -0.0106574 0.998739 0.0490586   
     length 1.8074   
     axis 0 0 0   XYZ
    dof rx ry rz
    limits (-20.0 45.0)
           (-30.0 30.0)
           (-30.0 30.0)
  end
  begin
     id 15 
     name upperneck
     direction 0.030527 0.976587 -0.212944   
     length 1.80681   
     axis 0 0 0   XYZ
    dof rx ry rz
    limits (-20.0 45.0)
           (-30.0 30.0)
           (-30.0 30.0)
  end
  begin
     id 16
     name head
     direction 0.00869225 0.997035 -0.0764531  
     length 1.8313  
     axis 0 0 0   XYZ
    dof rx ry rz
    limits (-20.0 45.0)
           (-30.0 30.0)
           (-30.0 30.0)
  end
  begin
     id 17 
     name lclavicle
     direction 0.915958 0.399447 0.0382386  
     length 3.78965  
     axis 0 0 0   XYZ
    dof ry rz
    limits (-20.0 10.0)
           (0.0 20.0)
  end
  begin
     id 18 
     name lhumerus
     direction 1 -4.48967e-011 3.19303e-027   
     length 4.78095   
     axis -180 -30 -90   XYZ
    dof rx ry rz
    limits (-60.0 90.0)
           (-90.0 90.0)
           (-90.0 90.0)
  end
  begin
     id 19
     name lradius
     direction 1 -4.48967e-011 -3.77974e-027   
     length 3.58615   
     axis -180 -30 -90   XYZ
    dof rx
    limits (-10.0 170.0)
  end
  begin
     id 20
     name lwrist
     direction 1 -4.48927e-011 1.2807e-027   
     length 1.79307   
     axis 1.91374e-015 90 90   XYZ
    dof ry
    limits (-180.0 0.0)
 end
  begin
     id 21 
     name lhand
     direction 1 -4.49036e-011 2.5614e-027   
     length 0.659812   
     axis -1.63439e-015 90 90   XYZ
    dof rx rz
    limits (-90.0 90.0)
           (-45.0 45.0)
  end
  begin
     id 22 
     name lfingers
     direction 1 -4.49052e-011 5.1228e-027   
     length 0.531957   
     axis -3.26879e-015 90 90   XYZ
    dof rx
    limits (0.0 90.0)
  end
  begin
     id 23
     name lthumb
     direction 0.707107 -6.35012e-011 0.707107   
     length 0.763787   
     axis -90 45 2.85299e-015   XYZ
    dof rx rz
    limits (-45.0 45.0)
           (-45.0 45.0)
  end
  begin
     id 24 
     name rclavicle
     direction -0.895351 0.435135 0.0948887   
     length 3.70497  
     axis 0 0 0   XYZ 
    dof ry rz
    limits (-10.0 20.0)
           (-20.0 0.0)
  end
  begin
     id 25 
     name rhumerus
     direction -1 -4.48971e-011 2.38946e-027  
     length 4.48913   
     axis -180 30 90   XYZ
    dof rx ry rz
    limits (-90.0 60.0)
           (-90.0 90.0)
           (-90.0 90.0)
  end
  begin
     id 26 
     name rradius
     direction -1 -4.4895e-011 4.38668e-027   
     length 3.7051   
     axis -180 30 90   XYZ
    dof rx
    limits (-10.0 170.0)
  end
  begin
     id 27 
     name rwrist
     direction -1 -4.49007e-011 1.2807e-027   
     length 1.85255   
     axis 1.91374e-015 -90 -90   XYZ
    dof ry
    limits (-180.0 0.0)
  end
  begin
     id 28
     name rhand
     direction -1 -4.48851e-011 2.5614e-027   
     length 0.449136   
     axis -1.63439e-015 -90 -90   XYZ
    dof rx rz
    limits (-90.0 90.0)
           (-45.0 45.0)
  end
  begin
     id 29
     name rfingers
     direction -1 -4.49128e-011 5.1228e-027   
     length 0.362105   
     axis -3.26879e-015 -90 -90   XYZ
    dof rx
    limits (0.0 90.0)
  end
  begin
     id 30
     name rthumb
     direction -0.707107 -6.34851e-011 0.707107   
     length 0.519912   
     axis -90 -45 -2.85299e-015   XYZ
    dof rx rz
    limits (-45.0 45.0)
           (-45.0 45.0)
  end
:hierarchy
  begin
    root lhipjoint rhipjoint lowerback
    lhipjoint lfemur
    lfemur ltibia
    ltibia lfoot
    lfoot ltoes
    rhipjoint rfemur
    rfemur rtibia
    rtibia rfoot
    rfoot rtoes
    lowerback upperback
    upperback thorax
    thorax lowerneck lclavicle rclavicle
    lowerneck upperneck
    upperneck head
    lclavicle lhumerus
    lhumerus lradius
    lradius lwrist
    lwrist lhand lthumb
    lhand lfingers
    rclavicle rhumerus
    rhumerus rradius
    rradius rwrist
    rwrist rhand rthumb
    rhand rfingers
  end

#!OML:ASF I:\Actors\actors\Patient Classification 2\Patient 1\Session 1\actor1.ASF
:FULLY-SPECIFIED
:DEGREES
54
root -0.689259 18.6132 6.49876 -0.292318 0.675314 -1.65881
lowerback 15.6133 -0.261263 1.53368
upperback -3.07884 0.249583 2.44907
thorax -12.2237 0.119101 1.76601
lowerneck -13.2103 -1.11337 -0.827323
upperneck 11.6709 -1.65341 2.14779
head 5.71864 -0.678046 0.668376
rclavicle -2.3528e-015 -9.54166e-015
rhumerus -23.2434 -16.5003 -0.0246714
rradius 49.0095
rwrist -3.66943
rhand 18.0126 -39.9118
rfingers 7.12502
rthumb 42.6793 -64.2701
lclavicle -2.3528e-015 -9.54166e-015
lhumerus -11.4331 35.2974 2.16973
lradius 39.554
lwrist -6.33426
lhand 26.5264 -15.3838
lfingers 7.12502
lthumb 50.5588 5.54049
rfemur 12.001 1.11761 15.7153
rtibia -4.92986e-014
rfoot -20.7677 -11.5915
rtoes -3.75727
lfemur -1.5241 -7.13848 -12.6994
ltibia 22.165
lfoot -22.0984 8.63462
ltoes -56.2959
55
root -0.683622 18.6127 6.51301 -0.315719 0.761867 -1.57404
lowerback 15.7122 -0.284273 1.53144
upperback -3.06795 0.226595 2.49403
thorax -12.2701 0.110706 1.82416
lowerneck -13.216 -1.09304 -0.724371
upperneck 11.4999 -1.61883 1.98335
head 5.66292 -0.670143 0.602875
rclavicle -1.15699e-015 -1.98785e-014
rhumerus -23.0301 -17.1354 0.465991
rradius 48.9848
rwrist -3.43481
rhand 17.8483 -40.5359
rfingers 7.12502
rthumb 42.5256 -64.9474
lclavicle -1.15699e-015 -1.98785e-014
lhumerus -11.1784 35.9665 1.97708
lradius 39.4904
lwrist -6.79917
lhand 26.5411 -15.4282
lfingers 7.12502
lthumb 50.5722 5.48886
rfemur 12.0972 1.03747 15.6012
rtibia -3.65764e-014
rfoot -20.7946 -11.5722
rtoes -3.70734
lfemur -1.4815 -7.20833 -12.8264
ltibia 22.1913
lfoot -22.1473 8.65649
ltoes -56.292
56
root -0.677628 18.6119 6.52511 -0.33497 0.858495 -1.56386
lowerback 15.3668 -0.3303 1.38794
upperback -2.71556 0.140503 2.72582
thorax -11.6647 0.08816 2.16962
lowerneck -13.4305 -1.02981 -0.700102
upperneck 11.0557 -1.48843 1.69065
head 5.55453 -0.628849 0.517587
rclavicle -4.42296e-015 2.8625e-014
rhumerus -22.461 -18.4033 0.90797
rradius 48.8626
rwrist -2.98511
rhand 17.7837 -40.952
rfingers 7.12502
rthumb 42.4651 -65.3842
lclavicle -4.42296e-015 2.8625e-014
lhumerus -11.1312 37.3882 1.82531
lradius 39.3467
lwrist -7.5141
lhand 26.6805 -15.4763
lfingers 7.12502
lthumb 50.6994 5.37134
rfemur 12.176 0.945224 15.5717
rtibia 6.36111e-015
rfoot -20.7942 -11.6071
rtoes -3.8435
lfemur -1.45346 -7.25708 -12.8635
ltibia 22.2101
lfoot -22.1405 8.65916
ltoes -56.3676
57
root -0.671089 18.6103 6.5383 -0.345507 0.943723 -1.56806
lowerback 15.493 -0.342821 1.51007
upperback -2.72602 0.161339 2.80308
thorax -11.7523 0.0933872 2.1826
lowerneck -13.4638 -1.04731 -0.647593
upperneck 10.9423 -1.49625 1.51687
head 5.52267 -0.643774 0.45371
rclavicle 8.7341e-015 -1.74931e-014
rhumerus -22.3709 -18.8653 1.41663
rradius 48.8746
rwrist -2.67411
rhand 17.6426 -41.0102
rfingers 7.12502
rthumb 42.333 -65.4877
lclavicle 8.7341e-015 -1.74931e-014
lhumerus -10.7656 38.0542 1.79105
lradius 39.2151
lwrist -8.07315
lhand 26.7975 -15.4577
lfingers 7.12502
lthumb 50.8061 5.33128
rfemur 12.2502 0.864482 15.5499
rtibia 9.54166e-015
rfoot -20.8221 -11.5913
rtoes -3.81845
lfemur -1.42451 -7.23584 -12.8753
ltibia 22.2279
lfoot -22.1146 8.5708
ltoes -56.4132
58
root -0.663846 18.6092 6.552 -0.317064 1.00445 -1.56185
lowerback 15.578 -0.344327 1.64584
upperback -2.74979 0.195892 2.85235
thorax -11.8308 0.102802 2.15314
lowerneck -13.5242 -1.06489 -0.596327
upperneck 10.8909 -1.51631 1.4253
head 5.51562 -0.658141 0.414674
rclavicle -2.75814e-015 7.15625e-015
rhumerus -22.339 -19.2179 1.90691
rradius 48.8419
rwrist -2.26187
rhand 17.4624 -40.724
rfingers 7.12502
rthumb 42.1642 -65.2588
lclavicle -2.75814e-015 7.15625e-015
lhumerus -10.4641 38.6076 1.73754
lradius 39.1731
lwrist -8.56867
lhand 26.8389 -15.4196
lfingers 7.12502
lthumb 50.8439 5.34854
rfemur 12.2838 0.805725 15.5135
rtibia -1.59028e-014
rfoot -20.8639 -11.5504
rtoes -3.71606
lfemur -1.4343 -7.16729 -12.8883
ltibia 22.2474
lfoot -22.0944 8.42652
ltoes -56.4116
59
root -0.657045 18.6088 6.56456 -0.265014 1.08672 -1.56371
lowerback 15.8177 -0.36972 1.89898
upperback -2.88546 0.226431 2.84758
thorax -12.1276 0.100149 2.0039
lowerneck -13.598 -1.08226 -0.617396
upperneck 10.9904 -1.54093 1.45495
head 5.55987 -0.668001 0.42479
rclavicle -3.55328e-015 3.97569e-015
rhumerus -22.4001 -19.3526 2.36562
rradius 48.848
rwrist -1.85113
rhand 17.2345 -40.5606
rfingers 7.12502
rthumb 41.9506 -65.1671
lclavicle -3.55328e-015 3.97569e-015
lhumerus -10.2567 38.9432 1.60562
lradius 39.1935
lwrist -9.0806
lhand 26.8505 -15.5956
lfingers 7.12502
lthumb 50.8545 5.16665
rfemur 12.2858 0.722687 15.4915
rtibia 6.36111e-015
rfoot -20.8806 -11.5576
rtoes -3.91252
lfemur -1.48149 -7.12079 -12.8834
ltibia 22.2629
lfoot -22.0679 8.29023
ltoes -56.4206
60
root -0.649834 18.6084 6.5767 -0.22011 1.18653 -1.52327
lowerback 16.2071 -0.403716 2.18304
upperback -3.11843 0.258164 2.7953
thorax -12.6257 0.0925773 1.78901
lowerneck -13.5749 -1.0912 -0.55846
upperneck 11.113 -1.56484 1.44402
head 5.59432 -0.677471 0.409603
rclavicle -2.59662e-015 2.22639e-014
rhumerus -22.5995 -19.2602 2.80603
rradius 48.9717
rwrist -1.44555
rhand 17.1538 -40.7059
rfingers 7.12502
rthumb 41.875 -65.3377
lclavicle -2.59662e-015 2.22639e-014
lhumerus -10.051 39.0169 1.45577
lradius 39.2141
lwrist -9.62902
lhand 26.8971 -15.8968
lfingers 7.12502
lthumb 50.897 4.84196
rfemur 12.2955 0.62367 15.4219
rtibia -3.18055e-015
rfoot -20.8715 -11.6096
rtoes -4.38211
lfemur -1.52243 -7.10229 -12.9346
ltibia 22.2761
lfoot -22.0635 8.21604
ltoes -56.4994
61
root -0.641798 18.6074 6.59017 -0.180669 1.26154 -1.42883
lowerback 16.4255 -0.424898 2.3212
upperback -3.23915 0.272055 2.78569
thorax -12.8952 0.0881897 1.70301
lowerneck -13.5174 -1.10074 -0.460953
upperneck 11.0842 -1.58227 1.34262
head 5.57419 -0.689805 0.360666
rclavicle 5.81445e-015 -1.74931e-014
rhumerus -22.7492 -19.3018 3.19832
rradius 49.0901
rwrist -1.02846
rhand 16.9993 -40.5738
rfingers 7.12502
rthumb 41.7301 -65.2536
lclavicle 5.81445e-015 -1.74931e-014
lhumerus -10.0069 39.0512 1.23699
lradius 39.2864
lwrist -10.1572
lhand 27.0426 -16.1038
lfingers 7.12502
lthumb 51.0296 4.56109
rfemur 12.3157 0.551223 15.2894
rtibia -1.59028e-015
rfoot -20.8757 -11.6325
rtoes -4.58681
lfemur -1.54925 -7.0187 -13.0476
ltibia 22.2946
lfoot -22.0616 8.12133
ltoes -56.5913
62
root -0.633131 18.6059 6.60432 -0.13577 1.33764 -1.33327
lowerback 16.496 -0.451252 2.40537
upperback -3.24313 0.262918 2.82436
thorax -12.9423 0.0794625 1.70213
lowerneck -13.5807 -1.11416 -0.443528
upperneck 10.9935 -1.59182 1.2666
head 5.55549 -0.699564 0.332961
rclavicle 8.32411e-016 -3.97569e-015
rhumerus -22.8533 -19.5342 3.58248
rradius 49.1933
rwrist -0.469891
rhand 16.7405 -40.3791
rfingers 7.12502
rthumb 41.4874 -65.1385
lclavicle 8.32411e-016 -3.97569e-015
lhumerus -10.2078 39.0465 0.92373
lradius 39.4515
lwrist -10.5535
lhand 27.1288 -16.2059
lfingers 7.12502
lthumb 51.1081 4.41494
rfemur 12.3425 0.477504 15.1531
rtibia -1.43125e-014
rfoot -20.9147 -11.5867
rtoes -4.52716
lfemur -1.58485 -6.89472 -13.1533
ltibia 22.3229
lfoot -22.0296 7.93829
ltoes -56.5514
63
root -0.623405 18.6045 6.61613 -0.0953219 1.43742 -1.30306
lowerback 16.5903 -0.486394 2.56627
upperback -3.22877 0.263908 2.90159
thorax -12.9829 0.07153 1.69792
lowerneck -13.6935 -1.10094 -0.361074
upperneck 10.8914 -1.56374 1.08702
head 5.5397 -0.695835 0.265188
rclavicle -1.62506e-014 2.46493e-014
rhumerus -23.0757 -19.7712 4.04536
rradius 49.3911
rwrist 0.190431
rhand 16.7885 -40.2431
rfingers 7.12502
rthumb 41.5324 -64.9878
lclavicle -1.62506e-014 2.46493e-014
lhumerus -10.5826 38.8843 0.627899
lradius 39.7374
lwrist -10.717
lhand 27.0231 -16.263
lfingers 7.12502
lthumb 51.0118 4.41184
rfemur 12.3757 0.380012 15.0837
rtibia -1.43125e-014
rfoot -20.9711 -11.5041
rtoes -4.28881
lfemur -1.63601 -6.83909 -13.1923
ltibia 22.3603
lfoot -22.004 7.77069
ltoes -56.4424
64
root -0.613736 18.6041 6.62617 -0.0428348 1.52684 -1.29006
lowerback 16.6908 -0.519763 2.75665
upperback -3.21015 0.275219 2.98696
thorax -13.0227 0.066532 1.68331
lowerneck -13.802 -1.07451 -0.213622
upperneck 10.7969 -1.51873 0.817476
head 5.52428 -0.687893 0.160086
rclavicle 2.83889e-015 -1.11319e-014
rhumerus -23.3925 -19.9941 4.49681
rradius 49.6359
rwrist 0.682657
rhand 16.7671 -40.0515
rfingers 7.12502
rthumb 41.5123 -64.8029
lclavicle 2.83889e-015 -1.11319e-014
lhumerus -11.0974 38.5727 0.344907
lradius 40.1596
lwrist -10.6199
lhand 26.7019 -16.2734
lfingers 7.12502
lthumb 50.7189 4.56352
rfemur 12.3797 0.291793 15.0307
rtibia 1.59028e-015
rfoot -21.0154 -11.4366
rtoes -3.96141
lfemur -1.70975 -6.75846 -13.2103
ltibia 22.4008
lfoot -21.9621 7.62095
ltoes -56.3953
65
root -0.604683 18.605 6.63672 0.0494406 1.61049 -1.21827
lowerback 16.6419 -0.562069 2.83417
upperback -3.09606 0.241831 3.09941
thorax -12.8626 0.0511874 1.7697
lowerneck -13.9414 -1.03337 -0.139955
upperneck 10.5898 -1.44688 0.605608
head 5.47966 -0.665991 0.0876388
rclavicle -2.60905e-016 2.62396e-014
rhumerus -23.6724 -20.3868 4.85161
rradius 49.8595
rwrist 1.19718
rhand 16.27 -39.8525
rfingers 7.12502
rthumb 41.0457 -64.7543
lclavicle -2.60905e-016 2.62396e-014
lhumerus -11.9106 38.2783 -0.0554352
lradius 40.6827
lwrist -10.2232
lhand 26.113 -16.283
lfingers 7.12502
lthumb 50.181 4.8442
rfemur 12.3388 0.206946 14.9104
rtibia 9.54166e-015
rfoot -21.049 -11.3775
rtoes -3.69431
lfemur -1.82364 -6.57902 -13.2765
ltibia 22.4384
lfoot -21.8762 7.41899
ltoes -56.4107
66
root -0.594865 18.6068 6.64766 0.167856 1.71898 -1.11799
lowerback 16.3361 -0.609344 2.70898
upperback -2.78908 0.15082 3.33326
thorax -12.3288 0.0298254 2.10984
lowerneck -14.1291 -0.945734 -0.0516054
upperneck 10.1449 -1.29658 0.257516
head 5.36727 -0.615778 -0.0226051
rclavicle -3.2551e-015 3.18055e-014
rhumerus -23.9253 -21.0915 5.19921
rradius 50.1479
rwrist 1.8894
rhand 15.4573 -39.4431
rfingers 7.12502
rthumb 40.282 -64.5835
lclavicle -3.2551e-015 3.18055e-014
lhumerus -13.2033 38.004 -0.548953
lradius 41.4203
lwrist -9.41203
lhand 25.0075 -16.1708
lfingers 7.12502
lthumb 49.168 5.47809
rfemur 12.277 0.0952038 14.7579
rtibia -7.95139e-015
rfoot -21.0601 -11.3316
rtoes -3.48395
lfemur -1.95507 -6.46827 -13.3771
ltibia 22.4633
lfoot -21.8098 7.23428
ltoes -56.4144
67
root -0.583316 18.6102 6.65676 0.319794 1.8175 -1.04613
lowerback 16.4385 -0.622319 2.90132
upperback -2.767 0.189792 3.42827
thorax -12.3661 0.0387889 2.09737
lowerneck -14.3168 -0.954394 -0.0308674
upperneck 10.0454 -1.28716 0.0708188
head 5.36551 -0.624059 -0.0844121
rclavicle 8.52289e-015 -2.70347e-014
rhumerus -24.7866 -21.1782 5.64509
rradius 50.6602
rwrist 2.42379
rhand 14.1148 -38.516
rfingers 7.12502
rthumb 39.0178 -64.0309
lclavicle 8.52289e-015 -2.70347e-014
lhumerus -14.3387 37.0436 -0.874197
lradius 42.3752
lwrist -8.27655
lhand 23.4817 -15.889
lfingers 7.12502
lthumb 47.7636 6.43333
rfemur 12.1657 -0.0109231 14.6392
rtibia -1.43125e-014
rfoot -21.0159 -11.3623
rtoes -3.57736
lfemur -2.11974 -6.38921 -13.4499
ltibia 22.4723
lfoot -21.758 7.05982
ltoes -56.3962
68
root -0.570554 18.6156 6.66225 0.502723 1.90717 -0.983674
lowerback 16.5597 -0.641052 3.17841
upperback -2.72587 0.236949 3.50142
thorax -12.3925 0.0444626 2.01009
lowerneck -14.6292 -0.977832 -0.0846723
upperneck 9.9926 -1.29701 -0.00716851
head 5.40015 -0.636504 -0.102559
rclavicle -1.71452e-014 4.29375e-014
rhumerus -25.8489 -21.2277 5.9802
rradius 51.215
rwrist 2.99113
rhand 12.0168 -37.138
rfingers 7.12502
rthumb 37.0366 -63.193
lclavicle -1.71452e-014 4.29375e-014
lhumerus -15.6174 36.255 -1.17033
lradius 43.3948
lwrist -7.21293
lhand 21.6553 -15.7599
lfingers 7.12502
lthumb 46.0739 7.30384
rfemur 12.0083 -0.111442 14.5277
rtibia -1.59028e-014
rfoot -20.9323 -11.4574
rtoes -4.05414
lfemur -2.33868 -6.27197 -13.5101
ltibia 22.4803
lfoot -21.7016 6.85407
ltoes -56.3328
